<svg viewBox="0 0 16 16" height="16" width="16" xmlns="http://www.w3.org/2000/svg" xml:space="preserve" style="fill-rule:evenodd;clip-rule:evenodd;stroke-linejoin:round;stroke-miterlimit:2"><path d="M14 9.9V8.2a8.835 8.835 0 0 1 1.688-.525A9.064 9.064 0 0 1 17.5 7.5c.433 0 .858.033 1.275.1.417.067.825.15 1.225.25v1.6a7.2 7.2 0 0 0-1.212-.338A7.222 7.222 0 0 0 17.5 9a6.95 6.95 0 0 0-1.825.237A8.116 8.116 0 0 0 14 9.9Zm0 5.5v-1.7a8.835 8.835 0 0 1 1.688-.525A9.064 9.064 0 0 1 17.5 13c.433 0 .858.033 1.275.1.417.067.825.15 1.225.25v1.6a7.2 7.2 0 0 0-1.212-.338A7.222 7.222 0 0 0 17.5 14.5a7.3 7.3 0 0 0-1.825.225A6.918 6.918 0 0 0 14 15.4Zm0-2.75v-1.7a8.835 8.835 0 0 1 1.688-.525 9.064 9.064 0 0 1 1.812-.175c.433 0 .858.033 1.275.1.417.067.825.15 1.225.25v1.6a7.2 7.2 0 0 0-1.212-.338 7.222 7.222 0 0 0-1.288-.112 6.95 6.95 0 0 0-1.825.237A8.116 8.116 0 0 0 14 12.65Zm-1 4.4c.733-.35 1.471-.612 2.213-.788a10.274 10.274 0 0 1 4.05-.112c.575.1 1.154.25 1.737.45V6.7a8.718 8.718 0 0 0-1.712-.525 9.2 9.2 0 0 0-4.113.125c-.767.2-1.492.5-2.175.9v9.85ZM12 20a9.612 9.612 0 0 0-2.6-1.475A8.192 8.192 0 0 0 6.5 18c-.7 0-1.387.092-2.062.275a9.06 9.06 0 0 0-1.938.775c-.35.183-.687.175-1.012-.025A.967.967 0 0 1 1 18.15V6.1c0-.183.046-.358.138-.525A.857.857 0 0 1 1.55 5.2a12.359 12.359 0 0 1 2.413-.887C4.788 4.104 5.633 4 6.5 4A10.777 10.777 0 0 1 12 5.5 10.784 10.784 0 0 1 17.5 4c.867 0 1.713.104 2.538.313a12.35 12.35 0 0 1 2.412.887.864.864 0 0 1 .413.375c.091.167.137.342.137.525v12.05a.966.966 0 0 1-.487.875c-.325.2-.663.208-1.013.025a9.052 9.052 0 0 0-1.937-.775A7.852 7.852 0 0 0 17.5 18c-1 0-1.967.175-2.9.525-.933.35-1.8.842-2.6 1.475Z" style="fill-rule:nonzero" transform="matrix(.68182 0 0 .68182 -.182 -.127)"/></svg>