<?xml version="1.0" encoding="UTF-8" standalone="no"?>
<!DOCTYPE svg PUBLIC "-//W3C//DTD SVG 1.1//EN" "http://www.w3.org/Graphics/SVG/1.1/DTD/svg11.dtd">
<svg width="100%" height="100%" viewBox="0 0 512 512" version="1.1" xmlns="http://www.w3.org/2000/svg" xmlns:xlink="http://www.w3.org/1999/xlink" xml:space="preserve" xmlns:serif="http://www.serif.com/" style="fill-rule:evenodd;clip-rule:evenodd;stroke-linejoin:round;stroke-miterlimit:2;">
    <g transform="matrix(0.992,0,0,0.992,504,254.184)">
        <path d="M0,1.831C0,-136.24 -111.929,-248.169 -250,-248.169C-388.071,-248.169 -500,-136.24 -500,1.831C-500,119.076 -419.285,217.453 -310.394,244.469L-310.394,78.227L-361.946,78.227L-361.946,1.831L-310.394,1.831L-310.394,-31.088C-310.394,-116.18 -271.886,-155.62 -188.346,-155.62C-172.508,-155.62 -145.179,-152.515 -133.999,-149.409L-133.999,-80.155C-139.9,-80.776 -150.148,-81.087 -162.881,-81.087C-203.874,-81.087 -219.713,-65.559 -219.713,-25.187L-219.713,1.831L-138.054,1.831L-152.082,78.227L-219.713,78.227L-219.713,250C-95.927,235.049 0,129.649 0,1.831" style="fill-rule:nonzero;"/>
    </g>
</svg>
