<?xml version="1.0" encoding="UTF-8" standalone="no"?>
<svg xmlns:rdf="http://www.w3.org/1999/02/22-rdf-syntax-ns#" xmlns="http://www.w3.org/2000/svg" version="1.1" xml:space="preserve" height="32" width="32" enable-background="new 0 0 595.275 311.111" y="0px" x="0px" xmlns:cc="http://creativecommons.org/ns#" xmlns:dc="http://purl.org/dc/elements/1.1/" viewBox="0 0 32 32"><rect rx="5" ry="5" height="32" width="32" y="-.0000052588" x="0" fill="#0082c9"/><path style="color:#000000;block-progression:tb;text-transform:none;text-indent:0" fill="#fff" d="m9.102 6.0816c-1.92 0-3.5487 1.4041-3.5487 3.2161 0.01363 0.57273 0.06485 1.279 0.40663 2.7725v0.03699l0.03699 0.03699c0.10971 0.31427 0.26938 0.49406 0.48055 0.73934s0.46294 0.53398 0.70234 0.7763c0.0282 0.02854 0.04622 0.04613 0.0739 0.07399 0.04751 0.20662 0.105 0.42898 0.14786 0.62844 0.11406 0.53068 0.10236 0.90647 0.0739 1.035-0.82501 0.28969-1.8514 0.63468-2.7724 1.035-0.51706 0.2248-0.98494 0.42554-1.3677 0.66541-0.38277 0.23988-0.76344 0.4211-0.88715 0.96114-0.0017 0.02457-0.0017 0.04932 0 0.07399-0.1209 1.1101-0.30379 2.7427-0.44359 3.8446-0.03018 0.23195 0.09206 0.47645 0.29572 0.59147 1.6722 0.90328 4.241 1.2668 6.8016 1.2569 2.5607-0.01 5.109-0.39492 6.7277-1.2569 0.20365-0.11502 0.3259-0.35953 0.29572-0.59147-0.04467-0.34444-0.09946-1.1211-0.14786-1.8853-0.04838-0.76421-0.09042-1.516-0.14786-1.9593-0.02-0.10989-0.072-0.21377-0.14786-0.29573-0.51423-0.61407-1.2825-0.98942-2.181-1.3678-0.82024-0.34539-1.7819-0.70407-2.7354-1.109-0.05338-0.1189-0.10638-0.46482 0-0.99813 0.02854-0.1432 0.0733-0.29657 0.1109-0.4436 0.08961-0.10037 0.15946-0.1824 0.25876-0.29574 0.21178-0.24172 0.43934-0.4953 0.62841-0.73934s0.34376-0.4534 0.44359-0.73934l0.03699-0.03699c0.38638-1.5595 0.38659-2.2102 0.40663-2.7725v-0.03699c0-1.812-1.6287-3.2161-3.5487-3.2161zm10.151-2.9512c-2.7992 0-5.1738 2.0471-5.1738 4.6888 0.01983 0.83498 0.09454 1.8647 0.59284 4.042v0.05389l0.05389 0.0539c0.15996 0.45818 0.39274 0.72029 0.70062 1.0779 0.30788 0.3576 0.67494 0.77849 1.024 1.1318 0.04105 0.04156 0.06735 0.06735 0.10778 0.10781 0.06925 0.30122 0.15308 0.62541 0.21558 0.91621 0.16629 0.77367 0.14923 1.3216 0.1078 1.5091-1.2028 0.42234-2.6993 0.92527-4.042 1.5091-0.75386 0.32772-1.436 0.62038-1.9941 0.97011-0.55807 0.34971-1.1131 0.61393-1.2935 1.4013-0.0026 0.03587-0.0026 0.07192 0 0.10781-0.17628 1.6185-0.44291 3.9986-0.64673 5.605-0.04398 0.33816 0.13423 0.69462 0.43115 0.86231 2.438 1.3169 6.1832 1.847 9.9167 1.8324 3.7333-0.0145 7.4486-0.57574 9.8089-1.8324 0.29692-0.16769 0.47516-0.52415 0.43115-0.86231-0.0651-0.50214-0.14501-1.6344-0.21558-2.7486-0.07054-1.1141-0.13183-2.2101-0.21556-2.8564-0.02923-0.1602-0.10496-0.31165-0.21558-0.43115-0.74972-0.89526-1.8699-1.4425-3.1798-1.9941-1.1959-0.50355-2.5979-1.0265-3.9881-1.6168-0.07778-0.17334-0.15511-0.67766 0-1.4552 0.04165-0.20877 0.10688-0.43238 0.16168-0.64673 0.13066-0.14634 0.23249-0.26592 0.37726-0.43116 0.30877-0.35241 0.64054-0.7221 0.91621-1.0779 0.27566-0.35578 0.50119-0.661 0.64673-1.0779l0.0539-0.05389c0.565-2.2735 0.565-3.2222 0.594-4.042v-0.05389c0-2.6417-2.3747-4.6888-5.1738-4.6888z"/></svg>
