<?xml version="1.0" encoding="UTF-8" standalone="no"?>
<svg xmlns:rdf="http://www.w3.org/1999/02/22-rdf-syntax-ns#" xmlns="http://www.w3.org/2000/svg" version="1.1" xml:space="preserve" height="128" width="128" enable-background="new 0 0 595.275 311.111" y="0px" x="0px" xmlns:cc="http://creativecommons.org/ns#" xmlns:dc="http://purl.org/dc/elements/1.1/" viewBox="0 0 128 128"><rect rx="20" ry="20" height="128" width="128" y="-.0000015" x="0" fill="#0082c9"/><path style="color:#000000;block-progression:tb;text-transform:none;text-indent:0" fill="#fff" d="m36.408 24.326c-7.6798 0-14.195 5.6165-14.195 12.864 0.0545 2.2909 0.25939 5.116 1.6265 11.09v0.14797l0.14797 0.14797c0.43885 1.2571 1.0775 1.9762 1.9222 2.9574 0.84469 0.98111 1.8517 2.1359 2.8094 3.1052 0.11279 0.11417 0.18488 0.18454 0.2956 0.29595 0.19006 0.82648 0.41998 1.7159 0.59145 2.5138 0.45624 2.1227 0.40946 3.6259 0.2956 4.1402-3.3001 1.1587-7.4056 2.5387-11.09 4.1402-2.0683 0.89919-3.9398 1.7021-5.4709 2.6616-1.5311 0.95952-3.0538 1.6844-3.5486 3.8446-0.0069 0.0983-0.0069 0.1973 0 0.29595-0.48359 4.4406-1.2151 10.971-1.7743 15.378-0.12072 0.92779 0.36824 1.9058 1.1829 2.3659 6.6888 3.6131 16.964 5.0673 27.206 5.0277 10.243-0.04001 20.436-1.5797 26.911-5.0277 0.81462-0.46006 1.3036-1.4381 1.1829-2.3659-0.17867-1.3777-0.39784-4.4844-0.59145-7.5411-0.1935-3.0568-0.36169-6.0638-0.59145-7.8371-0.08002-0.43958-0.28801-0.85508-0.59145-1.1829-2.0569-2.4563-5.1301-3.9577-8.7239-5.4712-3.281-1.3816-7.1276-2.8163-10.942-4.4361-0.21351-0.47558-0.42554-1.8593 0-3.9925 0.11417-0.57279 0.29319-1.1863 0.44361-1.7744 0.35845-0.4015 0.63784-0.72959 1.035-1.183 0.84714-0.9669 1.7574-1.9812 2.5137-2.9573 0.75629-0.97618 1.375-1.8136 1.7743-2.9574l0.14797-0.14797c1.5455-6.238 1.5463-8.8408 1.6265-11.09v-0.14797c0-7.248-6.515-12.864-14.195-12.864zm40.605-11.805c-11.197 0-20.695 8.1882-20.695 18.755 0.07933 3.3399 0.37818 7.4587 2.3713 16.168v0.21558l0.21558 0.21558c0.63984 1.8327 1.571 2.8811 2.8025 4.3116 1.2315 1.4304 2.6997 3.114 4.096 4.5272 0.16418 0.16626 0.26939 0.26939 0.43112 0.43123 0.27698 1.2049 0.61232 2.5017 0.86232 3.6649 0.66516 3.0947 0.59693 5.2864 0.43119 6.0362-4.8114 1.6894-10.797 3.7011-16.168 6.0362-3.0154 1.3109-5.7441 2.4815-7.9764 3.8804s-4.4523 2.4557-5.1739 5.6051c-0.01035 0.14349-0.01035 0.28767 0 0.43123-0.7051 6.4739-1.7716 15.994-2.5869 22.42-0.17591 1.3526 0.53691 2.7785 1.7246 3.4492 9.7521 5.2677 24.733 7.388 39.667 7.3297 14.933-0.058 29.794-2.3029 39.235-7.3297 1.1877-0.67075 1.9006-2.0966 1.7246-3.4492-0.26042-2.0086-0.58003-6.5378-0.86231-10.995-0.28216-4.4565-0.52733-8.8405-0.86225-11.426-0.11693-0.64081-0.41985-1.2466-0.86232-1.7246-2.9989-3.581-7.4794-5.7699-12.719-7.9764-4.7834-2.0142-10.392-4.106-15.953-6.4674-0.31112-0.69337-0.62046-2.7106 0-5.8206 0.1666-0.83507 0.4275-1.7295 0.64674-2.5869 0.52263-0.58534 0.92996-1.0637 1.5091-1.7246 1.2351-1.4096 2.5622-2.8884 3.6649-4.3116 1.1026-1.4231 2.0048-2.644 2.5869-4.3116l0.21558-0.21558c2.2533-9.0944 2.2545-12.889 2.3714-16.168v-0.21558c0-10.567-9.4986-18.755-20.695-18.755z"/></svg>
