<svg width="128" height="128" enable-background="new 0 0 595.275 311.111" version="1.1" viewBox="0 0 128 128" xml:space="preserve" xmlns="http://www.w3.org/2000/svg"><path d="m20 0c-11.08 0-20 8.92-20 20v88c0 11.08 8.92 20 20 20h88c11.08 0 20-8.92 20-20v-88c0-11.08-8.92-20-20-20z" fill="#0082c9" stroke-width="8"/><path d="m37.116 23.627c-7.7641 0-14.351 5.6781-14.351 13.006 0.05504 2.316 0.26224 5.1721 1.6444 11.212v0.14956l0.1496 0.14956c0.44366 1.2709 1.0893 1.9979 1.9433 2.9898 0.85396 0.99188 1.8721 2.1594 2.8402 3.1393 0.11408 0.1154 0.18692 0.18656 0.2988 0.2992 0.19212 0.83554 0.4246 1.7347 0.59797 2.5413 0.46126 2.146 0.41394 3.6657 0.2988 4.1856-3.3363 1.1715-7.4868 2.5666-11.211 4.1856-2.091 0.90906-3.983 1.7208-5.5309 2.6908-1.5479 0.97004-3.0873 1.7029-3.5876 3.8867-0.0068 0.09936-0.0068 0.19944 0 0.2992-0.48889 4.4893-1.2285 11.091-1.7938 15.547-0.12204 0.93791 0.37228 1.9267 1.1959 2.3919 6.7622 3.6528 17.15 5.1229 27.505 5.0828 10.355-0.04 20.66-1.597 27.206-5.0828 0.82356-0.46512 1.3179-1.4539 1.1959-2.3918-0.18056-1.3928-0.40219-4.5336-0.59794-7.6239-0.1956-3.0904-0.36568-6.1304-0.59795-7.9231-0.08092-0.44438-0.29116-0.86446-0.59794-1.1959-2.0794-2.4832-5.1863-4.0011-8.8196-5.5313-3.317-1.3967-7.2058-2.8472-11.062-4.4848-0.21584-0.48082-0.43024-1.8797 0-4.0363 0.1154-0.57908 0.2964-1.1993 0.44846-1.7939 0.36236-0.40591 0.64482-0.73759 1.0464-1.1959 0.85644-0.97751 1.7767-2.0029 2.5412-2.9898 0.76459-0.98689 1.3901-1.8335 1.7938-2.9898l0.14956-0.14956c1.5625-6.3065 1.5633-8.9378 1.6444-11.212v-0.14958c0-7.3275-6.5865-13.006-14.351-13.006zm41.05-11.934c-11.32 0-20.922 8.2781-20.922 18.961 0.08008 3.3766 0.38232 7.5406 2.3974 16.346v0.21792l0.21796 0.21792c0.64682 1.8528 1.5882 2.9128 2.8332 4.3589 1.245 1.4461 2.7294 3.1481 4.141 4.5768 0.16596 0.16808 0.27232 0.27236 0.43589 0.43594 0.28 1.2181 0.61897 2.5291 0.87178 3.7051 0.67243 3.1286 0.60345 5.3444 0.43597 6.1025-4.8643 1.7079-10.916 3.7417-16.346 6.1025-3.0485 1.3253-5.8071 2.5087-8.064 3.923-2.2568 1.4142-4.5012 2.4827-5.2307 5.6666-0.0108 0.14512-0.0108 0.29088 0 0.436-0.71283 6.545-1.7911 16.17-2.6153 22.666-0.17784 1.3675 0.54282 2.809 1.7435 3.4871 9.8591 5.3255 25.004 7.4691 40.102 7.4101 15.097-0.0584 30.121-2.3282 39.666-7.4101 1.2007-0.67808 1.9215-2.1196 1.7435-3.4871-0.2632-2.0306-0.58632-6.6095-0.87179-11.115-0.28528-4.5054-0.53312-8.9375-0.87169-11.551-0.11816-0.64784-0.42448-1.2603-0.87179-1.7435-3.0318-3.6204-7.5615-5.8333-12.859-8.064-4.8359-2.0363-10.506-4.1511-16.128-6.5384-0.31464-0.70098-0.6272-2.7404 0-5.8845 0.1684-0.84423 0.43216-1.7485 0.65384-2.6153 0.5284-0.59174 0.94021-1.0754 1.5256-1.7436 1.2486-1.4251 2.5903-2.9201 3.7051-4.3589 1.1147-1.4388 2.0268-2.673 2.6153-4.3589l0.21792-0.21792c2.2781-9.1941 2.2793-13.03 2.3974-16.346v-0.21793c0-10.683-9.6028-18.961-20.922-18.961z" color="#000000" fill="#fff" stroke-width="3.4871" style="text-indent:0;text-transform:none"/></svg>
