<?xml version="1.0" encoding="UTF-8" standalone="no"?>
<svg xmlns:rdf="http://www.w3.org/1999/02/22-rdf-syntax-ns#" xmlns="http://www.w3.org/2000/svg" version="1.1" xml:space="preserve" height="16" width="16" enable-background="new 0 0 595.275 311.111" y="0px" x="0px" xmlns:cc="http://creativecommons.org/ns#" xmlns:dc="http://purl.org/dc/elements/1.1/" viewBox="0 0 16 16"><path d="m2.5-0.000002c-1.385 0-2.5 1.115-2.5 2.5v11c0 1.385 1.115 2.5 2.5 2.5h11c1.385 0 2.5-1.115 2.5-2.5v-11c0-1.385-1.115-2.5-2.5-2.5h-11zm7.127 1.5654c1.3996 0 2.5869 1.0229 2.5869 2.3438v0.02734c-0.01461 0.4099-0.01521 0.88469-0.29688 2.0215l-0.02637 0.02637c-0.07277 0.20845-0.18541 0.36117-0.32324 0.53906-0.13784 0.1779-0.3046 0.36286-0.45898 0.53906-0.07239 0.08262-0.12315 0.14265-0.18848 0.21582-0.0274 0.10718-0.06023 0.21886-0.08105 0.32324-0.07756 0.38875-0.03889 0.64087 0 0.72754 0.69512 0.29517 1.3962 0.55682 1.9941 0.80859 0.65497 0.27581 1.215 0.54944 1.5898 0.99707 0.05531 0.05975 0.09378 0.13474 0.1084 0.21484 0.04186 0.32315 0.07215 0.87165 0.10742 1.4287 0.03529 0.5571 0.07585 1.123 0.1084 1.374 0.022 0.16908-0.06736 0.3478-0.21582 0.43164-1.1801 0.62834-3.0376 0.90876-4.9043 0.91602-1.867 0.007-3.7402-0.258-4.9592-0.916-0.1485-0.084-0.2369-0.263-0.2149-0.432 0.0452-0.355 0.0928-0.8 0.1436-1.241-0.015427 0.000115-0.030469 0.0019-0.045898 0.002-1.2803 0.005-2.5643-0.17727-3.4004-0.62891-0.10183-0.05751-0.16353-0.17992-0.14844-0.2959 0.0699-0.55094 0.16123-1.3668 0.22168-1.9219-0.00085-0.01233-0.00085-0.02482 0-0.03711 0.0618-0.2699 0.2529-0.3604 0.4443-0.4803 0.1914-0.12 0.425-0.2206 0.6836-0.333 0.4605-0.2002 0.9732-0.3728 1.3857-0.5176 0.0142-0.0643 0.0209-0.2523-0.0361-0.5176-0.0215-0.0997-0.0505-0.2102-0.0742-0.3135-0.0139-0.0139-0.0231-0.0228-0.0372-0.0371-0.1197-0.1212-0.2459-0.2661-0.3515-0.3887s-0.1854-0.212-0.2403-0.3691l-0.018555-0.01855v-0.01856c-0.17089-0.74677-0.19631-1.1004-0.20312-1.3867 0-0.906 0.81444-1.6074 1.7744-1.6074 0.95998 0 1.7744 0.70143 1.7744 1.6074v0.01855c-0.01002 0.28116-0.00994 0.60697-0.20312 1.3867l-0.018555 0.01855c-0.0498 0.143-0.127 0.2472-0.2216 0.3692-0.0945 0.122-0.2085 0.2493-0.3144 0.3701-0.0497 0.0567-0.0841 0.0973-0.1289 0.1475-0.018801 0.07352-0.041394 0.15008-0.055664 0.22168-0.053192 0.26666-0.02669 0.43958 0 0.49902 0.4768 0.2025 0.9571 0.382 1.3672 0.5547 0.3097 0.1304 0.585 0.263 0.8125 0.4316 0.3071-0.1103 0.6104-0.2163 0.8789-0.3105 0.0207-0.0938 0.0285-0.3671-0.0547-0.7539-0.0312-0.1454-0.0728-0.3074-0.1074-0.458-0.0202-0.0203-0.0332-0.034-0.0537-0.0547-0.1745-0.1767-0.3588-0.3867-0.5127-0.5655-0.154-0.1788-0.2696-0.3099-0.3496-0.539l-0.027343-0.02637v-0.02734c-0.2492-1.0887-0.286-1.604-0.296-2.0215 0-1.3209 1.1873-2.3438 2.5869-2.3438z"/></svg>
