<svg width="16" height="16" enable-background="new 0 0 595.275 311.111" version="1.1" viewBox="0 0 16 16" xml:space="preserve" xmlns="http://www.w3.org/2000/svg"><path d="m2.5 0c-1.385 0-2.5 1.115-2.5 2.5v11c0 1.385 1.115 2.5 2.5 2.5h11c1.385 0 2.5-1.115 2.5-2.5v-11c0-1.385-1.115-2.5-2.5-2.5z"/><path d="m4.6395 2.9534c-0.97051 0-1.7938 0.70976-1.7938 1.6257 0.0069 0.2895 0.03278 0.64651 0.20554 1.4015v0.0187l0.0187 0.01869c0.05546 0.15886 0.13617 0.24974 0.24291 0.37373 0.10674 0.12398 0.23401 0.26992 0.35502 0.39241 0.01426 0.01443 0.02337 0.02332 0.03735 0.0374 0.02402 0.10444 0.05307 0.21684 0.07475 0.31767 0.05766 0.26825 0.05174 0.45821 0.03735 0.5232-0.41703 0.14643-0.93586 0.32082-1.4014 0.5232-0.26137 0.11363-0.49787 0.2151-0.69137 0.33636-0.19348 0.12126-0.38591 0.21286-0.44844 0.48584-8.5e-4 0.01242-8.5e-4 0.02493 0 0.0374-0.061111 0.56116-0.15356 1.3864-0.22423 1.9434-0.015255 0.11724 0.046535 0.24084 0.14948 0.29898 0.84528 0.4566 2.1438 0.64037 3.4381 0.63535 1.2944-5e-3 2.5825-0.19962 3.4008-0.63535 0.10294-0.05814 0.16474-0.18174 0.14948-0.29898-0.02257-0.17411-0.05027-0.5667-0.07474-0.95299-0.02445-0.3863-0.04571-0.76629-0.07474-0.99039-0.01011-0.05555-0.03639-0.10806-0.07474-0.14949-0.25993-0.3104-0.64829-0.50014-1.1024-0.69141-0.41462-0.17459-0.90072-0.3559-1.3827-0.5606-0.02698-0.0601-0.05378-0.23496 0-0.50454 0.01442-0.07239 0.03705-0.14991 0.05606-0.22424 0.04529-0.05074 0.0806-0.0922 0.1308-0.14949 0.10706-0.12219 0.22208-0.25037 0.31766-0.37372 0.09557-0.12336 0.17376-0.22919 0.22423-0.37373l0.0187-0.01869c0.19531-0.78831 0.19541-1.1172 0.20554-1.4015v-0.0187c0-0.91594-0.82331-1.6257-1.7938-1.6257zm5.1313-1.4918c-1.4149 0-2.6153 1.0348-2.6153 2.3701 0.01001 0.42207 0.04779 0.94257 0.29967 2.0432v0.02724l0.02724 0.02724c0.08085 0.2316 0.19853 0.36409 0.35416 0.54486 0.15563 0.18076 0.34117 0.39352 0.51762 0.57211 0.02075 0.02101 0.03404 0.03404 0.05449 0.05449 0.035 0.15226 0.07737 0.31614 0.10897 0.46313 0.08405 0.39108 0.07543 0.66804 0.0545 0.76281-0.60803 0.21349-1.3645 0.46771-2.0432 0.76281-0.38106 0.16566-0.72589 0.31359-1.008 0.49038-0.2821 0.17678-0.56265 0.31033-0.65384 0.70832-0.0014 0.01814-0.0014 0.03636 0 0.0545-0.0891 0.81812-0.22389 2.0212-0.32691 2.8332-0.02223 0.17094 0.06785 0.35112 0.21794 0.43589 1.2324 0.66569 3.1255 0.93363 5.0127 0.92627 1.8871-0.0073 3.7652-0.29103 4.9583-0.92627 0.15009-0.08476 0.24018-0.26495 0.21794-0.43589-0.0329-0.25383-0.07329-0.82619-0.10897-1.3894-0.03566-0.56317-0.06664-1.1172-0.10896-1.4439-0.01477-0.08098-0.05306-0.15754-0.10897-0.21794-0.37897-0.45254-0.94519-0.72916-1.6073-1.008-0.6045-0.25454-1.3132-0.51888-2.016-0.8173-0.03933-0.08762-0.0784-0.34255 0-0.73556 0.02105-0.10553 0.05402-0.21856 0.08173-0.32691 0.06605-0.07397 0.11753-0.13442 0.1907-0.21794 0.15608-0.17814 0.32378-0.36501 0.46313-0.54487 0.13934-0.17984 0.25334-0.33413 0.32691-0.54486l0.02724-0.02724c0.28476-1.1493 0.28491-1.6288 0.29968-2.0432v-0.02724c0-1.3354-1.2004-2.3701-2.6153-2.3701z" color="#000000" fill="#fff" stroke-width=".43589" style="text-indent:0;text-transform:none"/></svg>
