<?xml version="1.0" encoding="UTF-8"?>
<svg width="16" height="16" version="1.1" viewBox="0 0 16 16" xmlns="http://www.w3.org/2000/svg">
 <path d="m4.1321 2.1914c-1.1171 0-2.0647 0.81694-2.0647 1.8712 0.00793 0.33322 0.037729 0.74414 0.23658 1.6131v0.02152l0.021524 0.02152c0.063833 0.18285 0.15673 0.28745 0.27959 0.43016 0.12286 0.14271 0.26934 0.31068 0.40863 0.45167 0.016406 0.01661 0.026892 0.02684 0.042997 0.04305 0.027644 0.12022 0.061089 0.24959 0.086029 0.36564 0.066362 0.30876 0.059558 0.5274 0.042997 0.6022-0.48001 0.16855-1.0772 0.36927-1.6131 0.60221-0.30084 0.13079-0.57306 0.24758-0.79577 0.38715-0.2227 0.13957-0.44419 0.24501-0.51616 0.55921-0.001003 0.0143-0.001003 0.0287 0 0.04305-0.07034 0.6459-0.17675 1.5957-0.25809 2.2368-0.01756 0.13495 0.053563 0.27721 0.17206 0.34413 0.97292 0.52554 2.4675 0.73707 3.9573 0.7313 1.4898-0.0058 2.9725-0.22977 3.9143-0.7313 0.11849-0.06692 0.18962-0.20918 0.17206-0.34413-0.025989-0.2004-0.057867-0.65228-0.086029-1.0969-0.028146-0.44463-0.05261-0.88201-0.086029-1.1399-0.01164-0.06394-0.041893-0.12438-0.086029-0.17206-0.29919-0.35727-0.7462-0.57566-1.2689-0.79582-0.47723-0.20096-1.0367-0.40964-1.5915-0.64525-0.031056-0.06918-0.061896-0.27044 0-0.58073 0.016607-0.08331 0.042646-0.17255 0.064525-0.2581 0.052138-0.0584 0.092777-0.10612 0.15055-0.17207 0.12322-0.14064 0.25562-0.28817 0.36562-0.43016 0.11001-0.14199 0.2-0.2638 0.25809-0.43016l0.021523-0.02152c0.2248-0.90735 0.22492-1.2859 0.23658-1.6131v-0.02152c0-1.0542-0.94763-1.8712-2.0647-1.8712zm5.9062-1.7171c-1.6286 0-3.0102 1.191-3.0102 2.728 0.011539 0.48581 0.055008 1.0849 0.34492 2.3517v0.03136l0.031357 0.03136c0.093068 0.26658 0.2285 0.41908 0.40764 0.62714 0.17913 0.20806 0.39269 0.45294 0.59578 0.6585 0.023881 0.02418 0.039184 0.03918 0.062709 0.06272 0.040287 0.17526 0.089064 0.36388 0.12543 0.53307 0.09675 0.45014 0.086826 0.76892 0.062719 0.878-0.69984 0.24572-1.5705 0.53834-2.3517 0.878-0.43861 0.19068-0.8355 0.36095-1.1602 0.56443-0.32469 0.20347-0.64761 0.35719-0.75257 0.81528-0.00151 0.02087-0.00151 0.04184 0 0.06272-0.10256 0.94166-0.25769 2.3264-0.37628 3.2611-0.025587 0.19675 0.078097 0.40414 0.25085 0.50171 1.4185 0.76622 3.5975 1.0746 5.7697 1.0661 2.1721-0.0084 4.3337-0.33497 5.707-1.0661 0.17275-0.09756 0.27645-0.30496 0.25085-0.50171-0.03788-0.29216-0.08437-0.95095-0.12543-1.5992-0.04104-0.64821-0.0767-1.2859-0.12542-1.6619-0.01701-0.09321-0.06107-0.18132-0.12543-0.25085-0.4362-0.52088-1.0879-0.83926-1.8501-1.1602-0.69578-0.29298-1.5115-0.59724-2.3204-0.94071-0.04525-0.10085-0.09025-0.39428 0-0.84664 0.02423-0.12146 0.06218-0.25156 0.09407-0.37628 0.07602-0.08514 0.13527-0.15472 0.2195-0.25086 0.17965-0.20504 0.37268-0.42013 0.53307-0.62714 0.16038-0.207 0.2916-0.38458 0.37628-0.62714l0.03136-0.03136c0.32776-1.3228 0.32793-1.8747 0.34493-2.3517v-0.03136c0-1.537-1.3816-2.728-3.0102-2.728z" color="#000000" style="text-indent:0;text-transform:none"/>
</svg>
