<?xml version="1.0" encoding="UTF-8" standalone="no"?>
<!DOCTYPE svg PUBLIC "-//W3C//DTD SVG 1.1//EN" "http://www.w3.org/Graphics/SVG/1.1/DTD/svg11.dtd">
<svg width="100%" height="100%" viewBox="0 0 448 512" version="1.1" xmlns="http://www.w3.org/2000/svg" xmlns:xlink="http://www.w3.org/1999/xlink" xml:space="preserve" xmlns:serif="http://www.serif.com/" style="fill-rule:evenodd;clip-rule:evenodd;stroke-linejoin:round;stroke-miterlimit:2;">
    <g transform="matrix(0.448102,0,0,0.448102,-1.1207,30.8783)">
        <path d="M295.42,6C242.22,8.51 205.89,17 174.13,29.48C141.26,42.29 113.4,59.48 85.68,87.3C57.96,115.12 40.89,143 28.17,175.92C15.86,207.75 7.52,244.11 5.17,297.34C2.82,350.57 2.3,367.68 2.56,503.46C2.82,639.24 3.42,656.26 6,709.6C8.54,762.79 17,799.11 29.48,830.88C42.31,863.75 59.48,891.6 87.31,919.33C115.14,947.06 143,964.09 176,976.83C207.8,989.12 244.17,997.5 297.39,999.83C350.61,1002.16 367.74,1002.7 503.48,1002.44C639.22,1002.18 656.31,1001.58 709.64,999.05C762.97,996.52 799.1,988 830.88,975.58C863.75,962.72 891.62,945.58 919.33,917.74C947.04,889.9 964.1,862 976.81,829.06C989.13,797.26 997.5,760.89 999.81,707.71C1002.14,654.34 1002.69,637.3 1002.43,501.54C1002.17,365.78 1001.56,348.76 999.03,295.44C996.5,242.12 988.03,205.91 975.56,174.12C962.71,141.25 945.56,113.42 917.74,85.67C889.92,57.92 862,40.87 829.07,28.19C797.25,15.88 760.9,7.49 707.68,5.19C654.46,2.89 637.33,2.3 501.54,2.56C365.75,2.82 348.75,3.4 295.42,6M301.26,909.88C252.51,907.76 226.04,899.66 208.4,892.88C185.04,883.88 168.4,873 150.82,855.59C133.24,838.18 122.44,821.48 113.32,798.17C106.47,780.53 98.22,754.09 95.94,705.34C93.46,652.65 92.94,636.83 92.65,503.34C92.36,369.85 92.87,354.05 95.18,301.34C97.26,252.63 105.41,226.13 112.18,208.5C121.18,185.11 132.02,168.5 149.47,150.93C166.92,133.36 183.57,122.54 206.9,113.42C224.52,106.54 250.96,98.36 299.69,96.04C352.42,93.54 368.22,93.04 501.69,92.75C635.16,92.46 651,92.96 703.75,95.28C752.46,97.4 778.97,105.47 796.58,112.28C819.95,121.28 836.58,132.09 854.15,149.57C871.72,167.05 882.55,183.64 891.67,207.02C898.56,224.59 906.74,251.02 909.04,299.78C911.55,352.51 912.12,368.32 912.36,501.78C912.6,635.24 912.13,651.09 909.82,703.78C907.69,752.53 899.61,779.01 892.82,796.67C883.82,820.02 872.97,836.67 855.51,854.23C838.05,871.79 821.42,882.61 798.08,891.73C780.48,898.6 754.01,906.8 705.32,909.12C652.59,911.6 636.79,912.12 503.27,912.41C369.75,912.7 354,912.16 301.27,909.88M708.87,235.27C708.925,268.147 735.993,295.17 768.87,295.17C801.785,295.17 828.87,268.085 828.87,235.17C828.87,202.255 801.785,175.17 768.87,175.17C768.83,175.17 768.79,175.17 768.75,175.17C735.843,175.236 708.815,202.363 708.87,235.27M245.77,503C246.05,644.8 361.21,759.49 502.98,759.22C644.75,758.95 759.52,643.8 759.25,502C758.98,360.2 643.79,245.48 502,245.76C360.21,246.04 245.5,361.22 245.77,503M335.83,502.82C335.83,502.71 335.83,502.6 335.83,502.49C335.83,411.058 411.067,335.82 502.5,335.82C593.932,335.82 669.17,411.058 669.17,502.49C669.17,593.798 594.137,668.979 502.83,669.16C502.713,669.16 502.596,669.16 502.48,669.16C411.175,669.16 336,594.124 335.83,502.82" style="fill-rule:nonzero;"/>
    </g>
</svg>
