<svg xmlns="http://www.w3.org/2000/svg" height="16" width="16" viewBox="0 0 5.12 5.12"><path d="M2.2 2.67c.18-.1.33-.38.35-.78H2.2zm-.22 0v-.78h-.35c.03.4.19.69.35.78zM2.2.89v.77h.34C2.53 1.28 2.38.98 2.2.9zm-.58.77h.35V.9c-.16.1-.32.39-.35.77zm.99-.64a1.61 1.6 0 0 1 .17.64h.23a.93.92 0 0 0-.4-.64zm-1.44.87a.93.92 0 0 0 .39.65 1.61 1.6 0 0 1-.16-.65z"/><path d="M4.2 2.83V.74A.58.58 0 0 0 3.6.16H.58A.58.58 0 0 0 0 .73v2.1a.58.58 0 0 0 .57.57h.82V4a.11.11 0 0 0 .19.08l.91-.68h1.12a.58.58 0 0 0 .57-.57zm-2.1.11a1.17 1.16 0 1 1 1.16-1.16 1.17 1.16 0 0 1-1.17 1.16z"/><path d="M2.62 2.54a.93.92 0 0 0 .4-.65h-.23a1.61 1.6 0 0 1-.17.65zm-1.44-.88h.23a1.61 1.6 0 0 1 .16-.64.93.92 0 0 0-.4.64zm3.37-.8a.11.11 0 0 0 0 .22.34.34 0 0 1 .34.35v2.1a.34.34 0 0 1-.34.34H3.6a.11.11 0 0 0-.11.1v.48l-.76-.55a.11.11 0 0 0-.13.18l.93.7a.11.11 0 0 0 .19-.1V4.1h.8a.58.58 0 0 0 .59-.58V1.44a.58.58 0 0 0-.57-.58z"/></svg>