<?xml version="1.0" encoding="UTF-8" standalone="no"?>
<!DOCTYPE svg PUBLIC "-//W3C//DTD SVG 1.1//EN" "http://www.w3.org/Graphics/SVG/1.1/DTD/svg11.dtd">
<svg width="100%" height="100%" viewBox="0 0 448 512" version="1.1" xmlns="http://www.w3.org/2000/svg" xmlns:xlink="http://www.w3.org/1999/xlink" xml:space="preserve" xmlns:serif="http://www.serif.com/" style="fill-rule:evenodd;clip-rule:evenodd;stroke-linejoin:round;stroke-miterlimit:2;">
    <g transform="matrix(5.64865,0,0,5.64865,15,31.0746)">
        <path d="M73.701,17.432C72.562,9.052 65.177,2.447 56.424,1.167C54.947,0.951 49.352,0.164 36.39,0.164L36.293,0.164C23.328,0.164 20.547,0.951 19.07,1.167C10.56,2.411 2.789,8.346 0.903,16.826C-0.004,21.002 -0.1,25.632 0.068,29.879C0.308,35.97 0.355,42.05 0.914,48.116C1.301,52.145 1.975,56.142 2.932,60.077C4.724,67.345 11.98,73.393 19.088,75.86C26.698,78.433 34.882,78.86 42.724,77.094C43.587,76.895 44.44,76.665 45.283,76.402C47.187,75.803 49.42,75.133 51.062,73.956C51.084,73.94 51.103,73.918 51.116,73.894C51.129,73.869 51.136,73.842 51.137,73.814L51.137,67.937C51.136,67.911 51.13,67.885 51.119,67.862C51.107,67.839 51.09,67.818 51.07,67.803C51.049,67.787 51.025,67.775 50.999,67.77C50.974,67.764 50.947,67.764 50.922,67.77C45.898,68.957 40.749,69.552 35.584,69.543C26.694,69.543 24.303,65.37 23.618,63.633C23.068,62.131 22.719,60.565 22.579,58.974C22.578,58.948 22.583,58.921 22.593,58.897C22.604,58.872 22.621,58.85 22.642,58.834C22.663,58.817 22.688,58.805 22.714,58.799C22.74,58.793 22.768,58.794 22.794,58.801C27.735,59.98 32.799,60.575 37.881,60.573C39.104,60.573 40.322,60.573 41.545,60.541C46.656,60.4 52.044,60.141 57.073,59.169C57.198,59.145 57.324,59.123 57.431,59.091C65.364,57.585 72.913,52.856 73.68,40.88C73.709,40.408 73.78,35.942 73.78,35.452C73.784,33.79 74.322,23.658 73.701,17.432ZM61.493,47.314L53.151,47.314L53.151,27.107C53.151,22.853 51.359,20.683 47.714,20.683C43.706,20.683 41.699,23.25 41.699,28.319L41.699,39.38L33.408,39.38L33.408,28.319C33.408,23.25 31.397,20.683 27.389,20.683C23.765,20.683 21.955,22.853 21.952,27.107L21.952,47.314L13.618,47.314L13.618,26.494C13.618,22.24 14.716,18.86 16.912,16.355C19.177,13.855 22.149,12.572 25.837,12.572C30.106,12.572 33.333,14.195 35.483,17.439L37.559,20.885L39.638,17.439C41.788,14.195 45.015,12.572 49.277,12.572C52.961,12.572 55.933,13.855 58.206,16.355C60.402,18.857 61.5,22.237 61.5,26.494L61.493,47.314Z" style="fill-rule:nonzero;"/>
    </g>
</svg>
