<svg xmlns="http://www.w3.org/2000/svg" height="16" width="16"><path d="M4 1c-.5 0-1 .5-1 1v2c0 .5.5 1 1 1s1-.5 1-1V2c0-.5-.5-1-1-1zm8 0c-.5 0-1 .5-1 1v2c0 .223.11.439.264.617L13 2.881V2c0-.5-.5-1-1-1zM5.5 3v1c0 .831-.5 1.5-1.5 1.5S2.5 5 2.5 4v-.938A1.998 1.998 0 0 0 1 5v8c0 .524.202.996.53 1.352L3 12.88V8h4.88l2.942-2.941C10.61 4.81 10.5 4.46 10.5 4V3h-5zM15 5.123L12.123 8H13v5H7.123l-2 2H13c1.108 0 2-.892 2-2V5.123z"/><path d="M13.773 2.756L1.903 14.627 3.274 16 15.146 4.129z" paint-order="fill markers stroke"/></svg>