<svg width="16" height="16" viewBox="0 0 4.23 4.23" xmlns="http://www.w3.org/2000/svg"><path d="M.53.25v1.33h1.32V.25zm.26.27h.8v.8h-.8z"/><path d="M1.06.79h.26v.26h-.26zM.53 2.37V3.7h1.32V2.37zm.26.27h.8v.79h-.8z"/><path d="M1.06 2.9h.26v.27h-.26zM2.65.25v1.33h1.32V.25zm.26.27h.8v.8h-.8z"/><path d="M3.17.79h.27v.26h-.27zM2.65 3.17v.53h.53v-.26H2.9v-.27zM2.65 2.38v.53h.26v-.27h.27v-.26zM3.44 2.38h.26v.26h-.26zM3.44 3.17h.26v.27h-.26zM3.7 3.44h.27v.26H3.7zM3.7 2.64h.27v.53H3.7zM3.17 2.9h.27v.27h-.27zM2.12.26v1.6H.52v.26h2.13v-.27h-.27V.26zM2.12 3.17h.26v.53h-.26zM2.12 2.65h.26v.26h-.26zM3.7 1.85h.27v.27H3.7zM2.91 1.85h.53v.27h-.53z"/></svg>