<svg viewBox="0 0 16 16" height="16" width="16" xmlns="http://www.w3.org/2000/svg" xml:space="preserve" style="fill-rule:evenodd;clip-rule:evenodd;stroke-linejoin:round;stroke-miterlimit:2"><path d="M2.95 19.55c-.619 0-1.154-.23-1.602-.69-.449-.46-.673-.989-.673-1.585V6.725c0-.603.224-1.137.673-1.602.448-.465.983-.698 1.602-.698h10.525c.603 0 1.137.233 1.602.698.465.465.698.999.698 1.602v10.55c0 .596-.233 1.125-.698 1.585-.465.46-.999.69-1.602.69H2.95Zm0-3.525a10.304 10.304 0 0 1 2.503-1.214 8.925 8.925 0 0 1 2.74-.411c.971 0 1.887.137 2.746.411.859.275 1.704.679 2.536 1.214v-9.3H2.95v9.3ZM8.2 13.25c-.774 0-1.425-.265-1.955-.795S5.45 11.274 5.45 10.5s.265-1.425.795-1.955S7.426 7.75 8.2 7.75s1.425.265 1.955.795.795 1.181.795 1.955-.265 1.425-.795 1.955-1.181.795-1.955.795Zm9.65 6.3V4.425h1.725V19.55H17.85Zm3.75 0V4.425h1.725V19.55H21.6Z" style="fill-rule:nonzero" transform="translate(.584 .558) scale(.6181)"/></svg>