<svg width="16" height="16" version="1.1" viewBox="0 0 16 16" xml:space="preserve" xmlns="http://www.w3.org/2000/svg"><g transform="matrix(.4567 0 0 .4567 -2.9609 -2.9606)"><path transform="matrix(2.1896 0 0 2.1896 6.4832 6.4826)" d="m4.8301 1.7344c-1.0066 0-2.0126 0.3817-2.7754 1.1445-0.76691 0.76283-1.1465 1.7698-1.1465 2.7773 0 1.0035 0.37958 2.0165 1.1465 2.7793l0.39062 0.39258 5.3535 5.3535c0.11139 0.11139 0.2949 0.11143 0.40625 0l5.3496-5.3535 0.39453-0.39258c0.76283-0.76283 1.1426-1.7758 1.1426-2.7793 0-1.0076-0.37975-2.0145-1.1426-2.7773-0.95353-0.95353-2.2872-1.3106-3.5273-1.0723-0.7441 0.14303-1.4556 0.50015-2.0293 1.0723l-0.39062 0.39648-0.39453-0.39648c-0.76283-0.76283-1.7708-1.1445-2.7773-1.1445zm-0.015625 1.1035a0.15986 0.15986 0 0 1 0.015625 0 0.15986 0.15986 0 0 1 0.033203 0.31641c-0.5706 0.10977-1.1137 0.38326-1.5527 0.82227-0.32444 0.32272-0.5585 0.70211-0.70312 1.1074a0.15986 0.15986 0 1 1-0.30078-0.10742c0.16006-0.44857 0.41848-0.8696 0.77734-1.2266 0.48533-0.48532 1.0881-0.78884 1.7188-0.91016a0.15986 0.15986 0 0 1 0.011719-0.0019532zm-2.5449 3.1074a0.15986 0.15986 0 0 1 0.16211 0.16211c0 0.18958 0.017372 0.37903 0.052734 0.56641a0.15986 0.15986 0 1 1-0.31445 0.060547c-0.039069-0.20703-0.058594-0.41754-0.058594-0.62695a0.15986 0.15986 0 0 1 0.1582-0.16211z" stroke-width=".47351"/></g></svg>
